# xmcd
#
# Track frame offsets: 
#        150
#        23170
#        42623
#        68147
#        86105
#        110225
#        143902
#        163419
#        180374
#        201076
#        220017
#        239035
#        250277
#
# Disc length: 3610 seconds
#
# Revision: 3
# Processed by: cddbd v1.5.2PL0 Copyright (c) Steve Scherf et al.
# Submitted via: ExactAudioCopy v0.99pb4
#
DISCID=c70e180d
DTITLE=Chris Rea - On The Beach
DYEAR=1986
DGENRE=Rock
TTITLE0=On The Beach 
TTITLE1=Little Blonde Plaits 
TTITLE2=Giverny 
TTITLE3=Lucky Day 
TTITLE4=Just Passing Through 
TTITLE5=It's All Gone 
TTITLE6=Hello Friend 
TTITLE7=Two Roads 
TTITLE8=Light Of Hope 
TTITLE9=Auf Immer Und Ewig 
TTITLE10=Freeway
TTITLE11=Bless Them All
TTITLE12=Crack That Mould
EXTD=
EXTT0=
EXTT1=
EXTT2=
EXTT3=
EXTT4=
EXTT5=
EXTT6=
EXTT7=
EXTT8=
EXTT9=
EXTT10=
EXTT11=
EXTT12=
PLAYORDER=
